<svg width="76" height="45" viewBox="0 0 76 45" fill="currentColor" xmlns="http://www.w3.org/2000/svg">
<path d="M22.488 45V35.848H10.392C8.51467 35.848 6.82933 35.4427 5.336 34.632C3.84267 33.7787 2.66933 32.648 1.816 31.24C0.962667 29.832 0.536 28.2747 0.536 26.568C0.536 25.672 0.642667 24.8187 0.856 24.008C1.06933 23.1547 1.368 22.344 1.752 21.576L12.44 0.199997H25.304L13.08 24.136C13.0373 24.3493 12.9947 24.52 12.952 24.648C12.9093 24.776 12.888 24.9253 12.888 25.096C12.888 25.352 12.9733 25.5653 13.144 25.736C13.3147 25.864 13.592 25.928 13.976 25.928H22.488V13H34.072V25.928H39.576V35.848H34.072V45H22.488ZM53.855 45C51.8923 45 50.1643 44.5733 48.671 43.72C47.1777 42.8667 46.0043 41.736 45.151 40.328C44.3403 38.92 43.935 37.3627 43.935 35.656C43.935 34.1627 44.2977 32.7333 45.023 31.368C45.7483 29.96 46.751 28.7867 48.031 27.848L61.151 18.632C61.9617 18.0347 62.559 17.3947 62.943 16.712C63.3697 16.0293 63.583 15.2827 63.583 14.472C63.583 13.6187 63.391 12.9147 63.007 12.36C62.623 11.7627 62.0897 11.3147 61.407 11.016C60.767 10.6747 59.999 10.504 59.103 10.504H45.791V0.199997H60.191C63.0923 0.199997 65.6523 0.839998 67.871 2.12C70.1323 3.4 71.903 5.10666 73.183 7.24C74.5057 9.37333 75.167 11.7627 75.167 14.408C75.167 17.0533 74.6123 19.4 73.503 21.448C72.4363 23.4533 70.687 25.224 68.255 26.76L57.887 33.544C57.759 33.5867 57.6523 33.672 57.567 33.8C57.4817 33.8853 57.439 33.992 57.439 34.12C57.439 34.3333 57.503 34.4827 57.631 34.568C57.8017 34.6533 58.015 34.696 58.271 34.696H75.935V45H53.855Z" fill="currentColor"/>
</svg>
